<svg width="92" height="92" viewBox="0 0 92 92" fill="none" xmlns="http://www.w3.org/2000/svg">
<path d="M71.8816 24.9287C69.832 24.9287 67.9147 25.1905 66.1446 25.681C66.6345 23.9086 66.8959 21.9887 66.8959 19.9333C66.8959 7.53217 57.3424 0 45.8955 0C34.4487 0 24.8921 7.53217 24.8921 19.9333C24.8921 21.9856 25.1536 23.9086 25.6434 25.681C23.8704 25.1905 21.956 24.9287 19.9065 24.9287C7.52203 24.9287 0 34.4921 0 45.9574C0 57.4227 7.52203 66.9891 19.9065 66.9891C21.956 66.9891 23.8734 66.7273 25.6434 66.2368C25.1536 68.0093 24.8921 69.9262 24.8921 71.9815C24.8921 84.3826 34.4457 91.9148 45.8955 91.9148C57.3454 91.9148 66.8959 84.3826 66.8959 71.9815C66.8959 69.9292 66.6345 68.0123 66.1476 66.2398C67.9177 66.7273 69.832 66.9891 71.8816 66.9891C84.266 66.9891 91.7881 57.4227 91.7881 45.9574C91.7881 34.4921 84.266 24.9287 71.8816 24.9287ZM71.8816 60.7449C68.3595 60.7449 65.1619 60.2032 62.4332 59.159C59.5151 58.0456 57.138 56.3604 55.4851 54.1576C55.377 54.0162 55.2387 53.9018 55.0764 53.8326C55.0674 53.8296 55.0614 53.8266 55.0524 53.8236C54.232 53.4806 53.4086 54.3081 53.7481 55.1266C53.7511 55.1356 53.7541 55.1417 53.7571 55.1507C53.8263 55.3162 53.9405 55.4546 54.0847 55.563C56.2845 57.215 57.9675 59.5984 59.0794 62.5174C60.1222 65.2498 60.6631 68.4516 60.6631 71.9785C60.6631 83.0796 55.2808 91.003 45.8955 91.003C36.5103 91.003 31.1279 83.0826 31.1279 71.9785C31.1279 68.4516 31.6719 65.2468 32.7147 62.5113C33.8236 59.5954 35.5065 57.2181 37.7003 55.566C37.8416 55.4576 37.9558 55.3192 38.0249 55.1537C38.0279 55.1447 38.0309 55.1356 38.0369 55.1266C38.3795 54.3051 37.5531 53.4776 36.7327 53.8206C36.7236 53.8236 36.7176 53.8266 36.7086 53.8296C36.5433 53.8988 36.4051 54.0132 36.2969 54.1546C34.644 56.3544 32.2699 58.0366 29.3549 59.15C26.6261 60.1942 23.4256 60.7389 19.9005 60.7389C8.81727 60.7389 0.901563 55.3523 0.901563 45.9514C0.901563 36.5505 8.81427 31.1639 19.9005 31.1639C23.4226 31.1639 26.6231 31.7056 29.3519 32.7498C32.2669 33.8632 34.644 35.5484 36.2969 37.7481C36.4051 37.8896 36.5433 38.0039 36.7086 38.0731C36.7176 38.0762 36.7236 38.0792 36.7327 38.0822C37.5531 38.4252 38.3795 37.5977 38.0339 36.7762C38.0309 36.7671 38.0279 36.7611 38.0249 36.7521C37.9558 36.5896 37.8416 36.4481 37.7003 36.3428C35.5065 34.6877 33.8266 32.3134 32.7147 29.3975C31.6719 26.665 31.1279 23.4572 31.1279 19.9303C31.1279 8.83218 36.5073 0.90579 45.8955 0.90579C55.2838 0.90579 60.6631 8.82917 60.6631 19.9303C60.6631 23.4572 60.1222 26.662 59.0794 29.3944C57.9644 32.3164 56.2815 34.6968 54.0847 36.3518C53.9435 36.4602 53.8293 36.5986 53.7602 36.7611C53.7572 36.7701 53.7542 36.7762 53.7512 36.7852C53.4086 37.6067 54.235 38.4312 55.0524 38.0882C55.0614 38.0852 55.0674 38.0822 55.0764 38.0792C55.2387 38.01 55.38 37.8956 55.4851 37.7542C57.141 35.5514 59.5181 33.8692 62.4362 32.7528C65.1619 31.7086 68.3595 31.1669 71.8816 31.1669C82.9648 31.1669 90.8805 36.5565 90.8805 45.9544C90.8805 55.3523 82.9678 60.7419 71.8816 60.7419V60.7449Z" fill="#D8D7D3"/>
<path d="M57.8593 45.9574C57.8593 47.8593 56.2576 48.9547 54.0097 48.9547C53.7152 48.9547 53.4297 48.9366 53.1622 48.9005C52.7865 48.8493 52.4349 48.7621 52.1164 48.6417C50.9203 48.1903 50.166 47.2665 50.166 45.9604C50.166 44.6544 50.9203 43.7336 52.1164 43.2822H52.1254C52.1344 43.2762 52.1495 43.2732 52.1585 43.2702C52.1855 43.2611 52.2126 43.2491 52.2396 43.2401C52.2396 43.2401 52.2486 43.2401 52.2486 43.2341C52.2606 43.2341 52.2757 43.225 52.2877 43.222C52.3117 43.213 52.3358 43.21 52.3598 43.201C52.441 43.1739 52.5281 43.1498 52.6122 43.1287C52.6874 43.1107 52.7655 43.0926 52.8467 43.0776C52.8797 43.0715 52.9188 43.0655 52.9548 43.0595C52.9969 43.0505 53.042 43.0445 53.0871 43.0384C53.0991 43.0324 53.1141 43.0324 53.1261 43.0294C53.1352 43.0294 53.1502 43.0294 53.1622 43.0234C53.4327 42.9873 53.7152 42.9692 54.0097 42.9692C56.2546 42.9692 57.8593 44.0586 57.8593 45.9635V45.9574Z" fill="#D8D7D3"/>
<path d="M41.6279 45.9574C41.6279 47.2635 40.8736 48.1873 39.6745 48.6387H39.6655C39.6264 48.6507 39.5904 48.6688 39.5513 48.6808C39.5333 48.6898 39.5122 48.6928 39.4912 48.7019C39.4702 48.7109 39.4491 48.7139 39.4311 48.7199C39.389 48.732 39.347 48.747 39.3049 48.756C39.2598 48.7681 39.2177 48.7801 39.1726 48.7891C39.1666 48.7891 39.1606 48.7952 39.1516 48.7952C39.0795 48.8132 39.0074 48.8283 38.9352 48.8463C38.8361 48.8644 38.7339 48.8794 38.6287 48.8975C38.3582 48.9336 38.0757 48.9517 37.7842 48.9517C35.5393 48.9517 33.9346 47.8593 33.9346 45.9544C33.9346 44.0496 35.5363 42.9602 37.7842 42.9602C38.0788 42.9602 38.3612 42.9783 38.6287 43.0144C39.0044 43.0655 39.356 43.1528 39.6745 43.2732C40.8736 43.7246 41.6279 44.6454 41.6279 45.9514V45.9574Z" fill="#D8D7D3"/>
</svg>
