<svg width="829" height="148" viewBox="0 0 829 148" fill="none" xmlns="http://www.w3.org/2000/svg">
<g opacity="0.3">
<path d="M644.357 81.6773H653.631V1.52588e-05H644.357V81.6773Z" fill="white"/>
<path d="M664.408 81.6773H673.682V1.52588e-05H664.408V81.6773Z" fill="white"/>
<path d="M684.459 81.6773H693.733V1.52588e-05H684.459V81.6773Z" fill="white"/>
<path d="M704.51 81.6773H713.784V1.52588e-05H704.51V81.6773Z" fill="white"/>
<path d="M724.561 81.6773H733.836V1.52588e-05H724.561V81.6773Z" fill="white"/>
<path d="M745.975 81.6773L755.249 81.6773V1.52588e-05H745.975V81.6773Z" fill="white"/>
<path d="M624.281 81.6773H633.555V1.52588e-05H624.281V81.6773Z" fill="white"/>
<path d="M604.191 81.6773H613.466V1.52588e-05H604.191V81.6773Z" fill="white"/>
<path d="M584.098 81.6773H593.372V1.52588e-05H584.098V81.6773Z" fill="white"/>
<path d="M564.026 81.6773H573.3V1.52588e-05H564.026V81.6773Z" fill="white"/>
<path d="M543.933 81.6773H553.207V1.52588e-05H543.933V81.6773Z" fill="white"/>
<path d="M523.844 81.6773H533.118V1.52588e-05H523.844V81.6773Z" fill="white"/>
<path d="M503.771 81.6773H513.045V1.52588e-05H503.771L503.771 81.6773Z" fill="white"/>
<path d="M483.679 81.6773L492.953 81.6773V1.52588e-05H483.679L483.679 81.6773Z" fill="white"/>
<path d="M463.606 81.6773H472.88V1.52588e-05H463.606V81.6773Z" fill="white"/>
<path d="M443.513 81.6773H452.788V1.52588e-05H443.513V81.6773Z" fill="white"/>
<path d="M727.671 148H730.929V0.00265503H727.671L727.671 148Z" fill="white"/>
<path d="M707.599 148H710.856V0.00265503H707.599L707.599 148Z" fill="white"/>
<path d="M687.506 148H690.763V0.00265503H687.506V148Z" fill="white"/>
<path d="M667.416 148H670.674V0.00265503H667.416L667.416 148Z" fill="white"/>
<path d="M647.344 148H650.601V0.00265503H647.344L647.344 148Z" fill="white"/>
<path d="M627.251 148H630.508V0.00265503H627.251L627.251 148Z" fill="white"/>
<path d="M607.179 148H610.436V0.00265503H607.179V148Z" fill="white"/>
<path d="M587.086 148H590.343V0.00265503H587.086V148Z" fill="white"/>
<path d="M566.996 148H570.253V0.00265503H566.996L566.996 148Z" fill="white"/>
<path d="M546.924 148H550.181V0.00265503H546.924V148Z" fill="white"/>
<path d="M526.831 148H530.088V0.00265503H526.831L526.831 148Z" fill="white"/>
<path d="M506.738 148H509.995L509.995 0.00265503H506.738V148Z" fill="white"/>
<path d="M486.665 148H489.923V0.00265503H486.665V148Z" fill="white"/>
<path d="M466.577 148H469.834L469.834 0.00265503H466.577V148Z" fill="white"/>
<path d="M446.504 148H449.761V0.00265503H446.504V148Z" fill="white"/>
<path d="M726.515 107.128H732.168V4.57764e-05H726.515V107.128Z" fill="white"/>
<path d="M748.983 148H752.241V0.0027771H748.983V148Z" fill="white"/>
<path d="M747.827 107.128H753.48V4.57764e-05H747.827V107.128Z" fill="white"/>
<path d="M770.295 148H773.553V0.0027771H770.295V148Z" fill="white"/>
<path d="M769.139 107.128L774.792 107.128V4.57764e-05H769.139L769.139 107.128Z" fill="white"/>
<path d="M791.606 148H794.864V0.0027771H791.606V148Z" fill="white"/>
<path d="M790.451 107.128H796.104V4.57764e-05L790.451 4.57764e-05L790.451 107.128Z" fill="white"/>
<path d="M812.918 148H816.176V0.0027771H812.918V148Z" fill="white"/>
<path d="M811.763 107.128L817.416 107.128V4.57764e-05H811.763V107.128Z" fill="white"/>
<path d="M834.23 148H837.488V0.0027771H834.23V148Z" fill="white"/>
<path d="M833.075 107.128H838.728V4.57764e-05H833.075L833.075 107.128Z" fill="white"/>
<path d="M855.542 148H858.8V0.0027771H855.542L855.542 148Z" fill="white"/>
<path d="M854.387 107.128H860.04V4.57764e-05H854.387V107.128Z" fill="white"/>
<path d="M876.854 148H880.112V0.0027771H876.854L876.854 148Z" fill="white"/>
<path d="M875.699 107.128H881.352V4.57764e-05H875.699V107.128Z" fill="white"/>
<path d="M898.166 148H901.424V0.0027771H898.166V148Z" fill="white"/>
<path d="M897.011 107.128H902.664V4.57764e-05H897.011V107.128Z" fill="white"/>
<path d="M919.478 148H922.736V0.0027771H919.478V148Z" fill="white"/>
<path d="M918.323 107.128H923.976V4.57764e-05H918.323L918.323 107.128Z" fill="white"/>
<path d="M939.733 148H942.99V0.0027771H939.733L939.733 148Z" fill="white"/>
<path d="M938.577 107.128H944.23V4.57764e-05H938.578L938.577 107.128Z" fill="white"/>
<path d="M959.987 148H963.245V0.0027771H959.987L959.987 148Z" fill="white"/>
<path d="M958.831 107.128H964.484V4.57764e-05H958.831V107.128Z" fill="white"/>
<path d="M980.241 148H983.498V0.0027771H980.241V148Z" fill="white"/>
<path d="M979.086 107.128H984.738V4.57764e-05H979.086V107.128Z" fill="white"/>
<path d="M1000.5 148H1003.75V0.0027771H1000.5V148Z" fill="white"/>
<path d="M999.34 107.128H1004.99V4.57764e-05H999.34V107.128Z" fill="white"/>
<path d="M1020.75 148H1024.01V0.0027771H1020.75V148Z" fill="white"/>
<path d="M1019.59 107.128H1025.25V4.57764e-05H1019.59V107.128Z" fill="white"/>
<path d="M1041.01 148H1044.26V0.00280762H1041.01V148Z" fill="white"/>
<path d="M1039.85 107.128H1045.5V9.15527e-05H1039.85V107.128Z" fill="white"/>
<path d="M1061.26 148H1064.52V0.00280762H1061.26V148Z" fill="white"/>
<path d="M1060.11 107.128H1065.76V9.15527e-05H1060.11L1060.11 107.128Z" fill="white"/>
<path d="M1081.52 148H1084.77V0.00280762H1081.52V148Z" fill="white"/>
<path d="M1080.36 107.128H1086.01V9.15527e-05H1080.36V107.128Z" fill="white"/>
<path d="M1101.77 148H1105.03V0.00280762H1101.77V148Z" fill="white"/>
<path d="M1100.61 107.128H1106.27V9.15527e-05H1100.61V107.128Z" fill="white"/>
<path d="M1122.02 148H1125.28V0.00280762H1122.02V148Z" fill="white"/>
<path d="M1120.87 107.128H1126.52V9.15527e-05H1120.87V107.128Z" fill="white"/>
<path d="M1143.34 148H1146.59V0.00280762H1143.34V148Z" fill="white"/>
<path d="M1142.18 107.128H1147.83V9.15527e-05H1142.18V107.128Z" fill="white"/>
<path d="M1164.65 148H1167.91V0.00280762H1164.65V148Z" fill="white"/>
<path d="M1163.49 107.128H1169.15V9.15527e-05H1163.49V107.128Z" fill="white"/>
<path d="M1185.96 148H1189.22V0.00280762H1185.96V148Z" fill="white"/>
<path d="M1184.8 107.128H1190.46V9.15527e-05H1184.8V107.128Z" fill="white"/>
<path d="M1207.27 148H1210.53V0.00280762H1207.27V148Z" fill="white"/>
<path d="M1206.12 107.128H1211.77V9.15527e-05H1206.12V107.128Z" fill="white"/>
<path d="M1228.58 148H1231.84V0.00280762H1228.58V148Z" fill="white"/>
<path d="M1227.43 107.128H1233.08V9.15527e-05H1227.43V107.128Z" fill="white"/>
<path d="M1249.9 148H1253.15V0.00280762H1249.9V148Z" fill="white"/>
<path d="M1248.74 107.128H1254.39V9.15527e-05H1248.74V107.128Z" fill="white"/>
<path d="M1271.21 148H1274.47V0.00280762H1271.21V148Z" fill="white"/>
<path d="M1270.05 107.128H1275.7V9.15527e-05H1270.05V107.128Z" fill="white"/>
<path d="M1291.47 148H1294.72V0.00280762H1291.47V148Z" fill="white"/>
<path d="M1290.31 107.128H1295.96V9.15527e-05H1290.31V107.128Z" fill="white"/>
<path d="M1311.72 148H1314.98V0.00280762H1311.72V148Z" fill="white"/>
<path d="M1310.56 107.128H1316.22V9.15527e-05H1310.56V107.128Z" fill="white"/>
<path d="M1331.97 148H1335.23V0.00280762H1331.97V148Z" fill="white"/>
<path d="M1330.82 107.128H1336.47V9.15527e-05H1330.82V107.128Z" fill="white"/>
<path d="M1352.23 148H1355.49V0.00280762H1352.23V148Z" fill="white"/>
<path d="M1351.07 107.128H1356.73V9.15527e-05H1351.07V107.128Z" fill="white"/>
<path d="M1372.48 148H1375.74V0.00280762H1372.48V148Z" fill="white"/>
<path d="M1371.33 107.128H1376.98V9.15527e-05H1371.33V107.128Z" fill="white"/>
<path d="M1392.74 148H1395.99V0.00280762H1392.74V148Z" fill="white"/>
<path d="M1391.58 107.128H1397.23V9.15527e-05H1391.58V107.128Z" fill="white"/>
<path d="M1412.99 148H1416.25V0.00280762H1412.99V148Z" fill="white"/>
<path d="M1411.84 107.128H1417.49V9.15527e-05H1411.84V107.128Z" fill="white"/>
<path d="M1433.25 148H1436.51V0.00280762H1433.25V148Z" fill="white"/>
<path d="M1432.09 107.128H1437.75V9.15527e-05H1432.09V107.128Z" fill="white"/>
<path d="M1453.5 148H1456.76V0.00280762H1453.5V148Z" fill="white"/>
<path d="M1452.35 107.128H1458V9.15527e-05H1452.35V107.128Z" fill="white"/>
<path d="M706.422 107.128H712.075V4.57764e-05H706.422V107.128Z" fill="white"/>
<path d="M686.333 107.128H691.986V4.57764e-05H686.333V107.128Z" fill="white"/>
<path d="M666.257 107.128H671.91V4.57764e-05H666.257V107.128Z" fill="white"/>
<path d="M646.167 107.128H651.82V4.57764e-05H646.167V107.128Z" fill="white"/>
<path d="M626.096 107.128H631.748V4.57764e-05H626.096V107.128Z" fill="white"/>
<path d="M606.002 107.128H611.655V4.57764e-05H606.002V107.128Z" fill="white"/>
<path d="M585.909 107.128H591.561V4.57764e-05H585.909V107.128Z" fill="white"/>
<path d="M565.837 107.128H571.489V4.57764e-05H565.837V107.128Z" fill="white"/>
<path d="M545.747 107.128H551.4V4.57764e-05H545.747V107.128Z" fill="white"/>
<path d="M525.654 107.128H531.307V4.57764e-05H525.654V107.128Z" fill="white"/>
<path d="M505.582 107.128H511.235V4.57764e-05H505.582L505.582 107.128Z" fill="white"/>
<path d="M485.489 107.128H491.142V4.57764e-05H485.489V107.128Z" fill="white"/>
<path d="M465.417 107.128H471.07V4.57764e-05H465.417L465.417 107.128Z" fill="white"/>
<path d="M445.328 107.128H450.981V4.57764e-05H445.328V107.128Z" fill="white"/>
<path d="M542.392 31.6776H554.755V0.00265503H542.392V31.6776Z" fill="white"/>
<path d="M522.299 31.6776H534.662V0.00265503H522.299V31.6776Z" fill="white"/>
<path d="M502.227 31.6776H514.591V0.00265503H502.227V31.6776Z" fill="white"/>
<path d="M482.137 31.6776L494.5 31.6776V0.00265503H482.137V31.6776Z" fill="white"/>
<path d="M462.062 31.6776H474.425V0.00265503H462.062V31.6776Z" fill="white"/>
<path d="M441.972 31.6776H454.336V0.00265503H441.972V31.6776Z" fill="white"/>
<path d="M423.424 81.6773H432.698V1.52588e-05H423.424V81.6773Z" fill="white"/>
<path d="M426.414 148H429.671L429.672 0.00265503H426.414V148Z" fill="white"/>
<path d="M425.237 107.128H430.89V4.57764e-05H425.237V107.128Z" fill="white"/>
<path d="M421.883 31.6776H434.246V0.00265503H421.883V31.6776Z" fill="white"/>
<path d="M403.334 81.6773H412.608V1.52588e-05H403.334V81.6773Z" fill="white"/>
<path d="M406.325 148H409.582L409.582 0.00265503H406.325V148Z" fill="white"/>
<path d="M405.148 107.128H410.801V4.57764e-05H405.148L405.148 107.128Z" fill="white"/>
<path d="M401.793 31.6776H414.156V0.00265503H401.793V31.6776Z" fill="white"/>
<path d="M383.244 81.6773H392.519V1.52588e-05H383.244L383.244 81.6773Z" fill="white"/>
<path d="M386.235 148H389.492L389.492 0.00265503H386.235V148Z" fill="white"/>
<path d="M385.059 107.128H390.712V4.57764e-05H385.059V107.128Z" fill="white"/>
<path d="M381.704 31.6776H394.067V0.00265503H381.704V31.6776Z" fill="white"/>
<path d="M363.155 81.6773H372.429V1.52588e-05H363.155L363.155 81.6773Z" fill="white"/>
<path d="M366.145 148H369.403L369.403 0.00265503H366.145V148Z" fill="white"/>
<path d="M364.969 107.128H370.622V4.57764e-05H364.969V107.128Z" fill="white"/>
<path d="M361.614 31.6776H373.977V0.00265503H361.614V31.6776Z" fill="white"/>
<path d="M343.065 81.6773H352.339V1.52588e-05H343.065V81.6773Z" fill="white"/>
<path d="M346.056 148H349.313V0.00265503H346.056V148Z" fill="white"/>
<path d="M344.88 107.128H350.533V4.57764e-05H344.88V107.128Z" fill="white"/>
<path d="M341.524 31.6776H353.888V0.00265503H341.524V31.6776Z" fill="white"/>
<path d="M322.976 81.6773H332.25V1.52588e-05H322.976L322.976 81.6773Z" fill="white"/>
<path d="M325.966 148H329.223L329.224 0.00265503H325.966V148Z" fill="white"/>
<path d="M324.79 107.128H330.443V4.57764e-05H324.79L324.79 107.128Z" fill="white"/>
<path d="M321.435 31.6776H333.798V0.00265503H321.435V31.6776Z" fill="white"/>
<path d="M302.886 81.6773L312.16 81.6773V1.52588e-05H302.886L302.886 81.6773Z" fill="white"/>
<path d="M305.877 148H309.134L309.134 0.00265503H305.877V148Z" fill="white"/>
<path d="M304.7 107.128H310.352V4.57764e-05H304.7V107.128Z" fill="white"/>
<path d="M301.345 31.6776L313.708 31.6776V0.00265503H301.345V31.6776Z" fill="white"/>
<path d="M282.796 81.6773H292.071V1.52588e-05H282.796L282.796 81.6773Z" fill="white"/>
<path d="M285.787 148H289.044L289.044 0.00265503H285.787L285.787 148Z" fill="white"/>
<path d="M284.61 107.128L290.263 107.128V4.57764e-05H284.61V107.128Z" fill="white"/>
<path d="M281.255 31.6776H293.618V0.00265503H281.255V31.6776Z" fill="white"/>
<path d="M262.707 81.6773H271.981V1.52588e-05L262.707 1.52588e-05L262.707 81.6773Z" fill="white"/>
<path d="M265.697 148H268.955L268.955 0.00265503H265.697V148Z" fill="white"/>
<path d="M264.52 107.128H270.173V4.57764e-05L264.52 4.57764e-05V107.128Z" fill="white"/>
<path d="M261.166 31.6776H273.529V0.00265503L261.166 0.00265503V31.6776Z" fill="white"/>
<path d="M242.617 81.6773H251.891L251.891 1.52588e-05H242.617L242.617 81.6773Z" fill="white"/>
<path d="M245.608 148H248.865L248.865 0.00265503H245.608L245.608 148Z" fill="white"/>
<path d="M244.431 107.127H250.084L250.084 0H244.431L244.431 107.127Z" fill="white"/>
<path d="M241.075 31.6776H253.439V0.00265503H241.075V31.6776Z" fill="white"/>
<path d="M222.528 81.6773H231.802L231.802 1.52588e-05H222.528L222.528 81.6773Z" fill="white"/>
<path d="M225.518 148H228.775L228.775 0.00265503H225.518L225.518 148Z" fill="white"/>
<path d="M224.341 107.127H229.994L229.994 0H224.341L224.341 107.127Z" fill="white"/>
<path d="M220.987 31.6776H233.35V0.00265503H220.987V31.6776Z" fill="white"/>
<path d="M202.438 81.6773H211.712L211.712 1.52588e-05H202.438L202.438 81.6773Z" fill="white"/>
<path d="M205.429 148H208.686L208.686 0.00265503H205.429L205.429 148Z" fill="white"/>
<path d="M204.252 107.127H209.904L209.904 0H204.252L204.252 107.127Z" fill="white"/>
<path d="M200.896 31.6776H213.26V0.00265503H200.896V31.6776Z" fill="white"/>
<path d="M182.348 81.6773H191.623L191.623 1.52588e-05H182.348L182.348 81.6773Z" fill="white"/>
<path d="M185.339 148H188.596L188.596 0.00265503H185.339L185.339 148Z" fill="white"/>
<path d="M184.162 107.127H189.815L189.815 0H184.162L184.162 107.127Z" fill="white"/>
<path d="M180.807 31.6776H193.17V0.00265503H180.807V31.6776Z" fill="white"/>
<path d="M162.259 81.6773H171.533L171.533 1.52588e-05H162.259L162.259 81.6773Z" fill="white"/>
<path d="M165.249 148H168.507L168.507 0.00265503H165.249L165.249 148Z" fill="white"/>
<path d="M164.072 107.127H169.725L169.725 0H164.072L164.072 107.127Z" fill="white"/>
<path d="M160.717 31.6776H173.08V0.00265503H160.717V31.6776Z" fill="white"/>
<path d="M142.169 81.6773H151.443L151.443 1.52588e-05H142.169L142.169 81.6773Z" fill="white"/>
<path d="M145.16 148H148.417L148.417 0.00265503H145.16L145.16 148Z" fill="white"/>
<path d="M143.983 107.127H149.636L149.636 0H143.983L143.983 107.127Z" fill="white"/>
<path d="M140.627 31.6776H152.991V0.00265503H140.627V31.6776Z" fill="white"/>
<path d="M122.08 81.6773H131.354L131.354 1.52588e-05H122.08L122.08 81.6773Z" fill="white"/>
<path d="M125.07 148H128.327L128.327 0.00265503H125.07L125.07 148Z" fill="white"/>
<path d="M123.893 107.127H129.546L129.546 0H123.893L123.893 107.127Z" fill="white"/>
<path d="M120.538 31.6776L132.901 31.6776V0.00265503H120.538L120.538 31.6776Z" fill="white"/>
<path d="M101.99 81.6773H111.264L111.264 1.52588e-05H101.99L101.99 81.6773Z" fill="white"/>
<path d="M104.981 148H108.238L108.238 0.00265503H104.981L104.981 148Z" fill="white"/>
<path d="M103.804 107.127H109.456L109.456 0H103.804L103.804 107.127Z" fill="white"/>
<path d="M100.448 31.6776H112.811L112.812 0.00265503H100.448L100.448 31.6776Z" fill="white"/>
<path d="M81.8994 81.6773H91.1737L91.1737 1.52588e-05L81.8994 1.52588e-05L81.8994 81.6773Z" fill="white"/>
<path d="M84.891 148H88.1483L88.1483 0.00265503H84.8911L84.891 148Z" fill="white"/>
<path d="M83.7138 107.127H89.3667L89.3667 0L83.7138 0L83.7138 107.127Z" fill="white"/>
<path d="M80.3585 31.6776H92.7219L92.7219 0.00265503L80.3585 0.00265503L80.3585 31.6776Z" fill="white"/>
<path d="M61.8108 81.6773H71.085L71.085 1.52588e-05H61.8108L61.8108 81.6773Z" fill="white"/>
<path d="M64.8014 148H68.0587L68.0587 0.00265503H64.8015L64.8014 148Z" fill="white"/>
<path d="M63.6243 107.127L69.2771 107.127L69.2771 0H63.6243L63.6243 107.127Z" fill="white"/>
<path d="M60.2689 31.6776H72.6323L72.6323 0.00265503H60.2689L60.2689 31.6776Z" fill="white"/>
<path d="M41.7202 81.6773L50.9944 81.6773L50.9945 1.52588e-05H41.7202L41.7202 81.6773Z" fill="white"/>
<path d="M44.7118 148H47.9691L47.9691 0.00265503H44.7119L44.7118 148Z" fill="white"/>
<path d="M43.5346 107.127H49.1875L49.1875 0H43.5346L43.5346 107.127Z" fill="white"/>
<path d="M40.1794 31.6776L52.5427 31.6776V0.00265503H40.1794V31.6776Z" fill="white"/>
<path d="M21.6316 81.6773H30.9058L30.9058 1.52588e-05H21.6316L21.6316 81.6773Z" fill="white"/>
<path d="M24.6222 148H27.8795L27.8795 0.00265503H24.6223L24.6222 148Z" fill="white"/>
<path d="M23.4451 107.127H29.0979L29.0979 0H23.4451L23.4451 107.127Z" fill="white"/>
<path d="M20.0898 31.6776H32.4531L32.4531 0.00265503H20.0898L20.0898 31.6776Z" fill="white"/>
<path d="M1.54178 81.6773H10.8162L10.8162 1.52588e-05H1.54179L1.54178 81.6773Z" fill="white"/>
<path d="M4.53255 148H7.78986L7.78988 0.00265503H4.53257L4.53255 148Z" fill="white"/>
<path d="M3.35543 107.127H9.00831L9.00832 0H3.35544L3.35543 107.127Z" fill="white"/>
<path d="M0 31.6776H12.3635L12.3635 0.00265503H4.96008e-06L0 31.6776Z" fill="white"/>
</g>
</svg>
