<svg width="70" height="78" viewBox="0 0 70 78" fill="none" xmlns="http://www.w3.org/2000/svg">
<path d="M59.351 41.108C59.3338 39.603 58.9812 38.1152 58.4308 36.7177C58.0051 35.6341 57.5149 34.5806 57.0333 33.5228C53.2063 25.1851 49.1901 16.9377 44.9933 8.7806C44.4042 7.6411 43.8237 6.493 43.2002 5.375C42.5853 4.2828 41.8715 3.225 40.947 2.3693C39.4721 0.9632 37.4941 0.1247 35.4645 0H34.5314C32.4416 0.1032 30.3991 0.9804 28.9027 2.4424C28.0126 3.2852 27.3246 4.3129 26.7269 5.3793C26.112 6.4844 25.5401 7.611 24.9596 8.7333C22.1388 14.2029 19.404 19.7198 16.7552 25.2711C15.1728 28.595 13.6076 31.9232 12.0983 35.2815C11.4748 36.679 10.9072 38.1281 10.6965 39.6546C10.3009 42.2303 10.8685 44.9393 12.2445 47.1495C13.4313 49.0716 15.2115 50.6196 17.2884 51.5183C18.9009 52.2149 20.6854 52.5331 22.4398 52.4299C24.7962 52.3052 27.0709 51.4581 29.0661 50.2197C31.2892 48.8523 33.1941 47.0377 34.9657 45.1371C36.6126 46.913 38.3756 48.6072 40.4138 49.9359C42.3789 51.2302 44.6235 52.1676 46.9799 52.3869C49.5427 52.6535 52.1915 52.0214 54.3415 50.5938C56.2335 49.3468 57.7256 47.5107 58.5598 45.408C59.1016 44.0449 59.3768 42.5743 59.351 41.108ZM34.9786 40.1147C34.3336 39.3579 33.7703 38.5409 33.1984 37.7282C32.2395 36.3264 31.3709 34.8558 30.67 33.3078C30.0981 32.0221 29.6337 30.6719 29.4574 29.2701C29.3284 28.1564 29.3585 26.9954 29.767 25.9376C30.1325 24.9486 30.8334 24.0886 31.7235 23.521C33.8434 22.1536 36.8663 22.2998 38.7884 23.9596C39.7602 24.7895 40.3407 26.015 40.4869 27.2706C40.6761 28.9433 40.2977 30.6246 39.7129 32.1855C38.6078 35.0837 36.862 37.6766 34.9743 40.1147H34.9786ZM55.7863 43.6622C55.2187 45.6187 53.8556 47.3258 52.0754 48.3148C50.4973 49.1963 48.6096 49.5016 46.8294 49.2049C44.559 48.8523 42.5251 47.6483 40.7621 46.2293C39.4678 45.1887 38.2982 43.9976 37.1802 42.7721C38.9475 40.5404 40.6073 38.2055 41.8801 35.6513C42.9895 33.4153 43.8323 30.9944 43.9097 28.4789C43.9527 26.8836 43.656 25.2582 42.9078 23.8392C41.9317 21.9429 40.1859 20.4852 38.1821 19.78C36.3116 19.1135 34.2304 19.0533 32.3212 19.5951C30.5195 20.1068 28.8769 21.1861 27.7503 22.6868C26.757 23.994 26.1937 25.6022 26.0604 27.2319C25.8583 29.5797 26.4474 31.9232 27.3375 34.0861C28.6619 37.2423 30.6055 40.0975 32.7512 42.7463C31.788 43.8643 30.7302 44.9049 29.6079 45.8681C27.8664 47.343 25.8712 48.6244 23.6137 49.1146C21.7862 49.5231 19.8168 49.321 18.1441 48.4739C16.1833 47.4978 14.6783 45.6574 14.1107 43.5418C13.6764 41.9852 13.771 40.3082 14.287 38.786C14.717 37.5261 15.2975 36.3264 15.8436 35.1138C19.6276 26.8664 23.6008 18.705 27.7503 10.6339C28.3695 9.4342 28.9801 8.2259 29.6337 7.0434C30.1669 6.0931 30.7904 5.1557 31.6719 4.4892C32.6136 3.7539 33.809 3.3497 35.0044 3.3798C36.2428 3.3669 37.4726 3.8227 38.4229 4.6182C39.3603 5.3965 39.9924 6.4586 40.56 7.5164C41.8414 9.9244 43.0755 12.3668 44.3096 14.8006C47.827 21.7666 51.2111 28.7971 54.449 35.8921C54.9392 36.9929 55.4638 38.0894 55.7906 39.2504C56.1948 40.6866 56.2077 42.2346 55.7906 43.6665L55.7863 43.6622Z" fill="#004759"/>
<path d="M16.6179 58.9271C17.6757 58.6863 18.8367 59.3872 19.1119 60.4364C19.4516 61.5114 18.7722 62.7627 17.6929 63.0766C16.6351 63.4507 15.3795 62.8014 15.0312 61.7479C14.7001 60.8578 15.0527 59.7871 15.8439 59.2582C16.0761 59.0948 16.347 58.9873 16.6222 58.9271H16.6179Z" fill="#004759"/>
<path d="M23.773 65.8761C24.4094 65.1838 25.3081 64.7495 26.2369 64.6076C26.8518 64.5474 27.4796 64.5861 28.0816 64.7237C28.073 65.6998 28.0816 66.6759 28.0816 67.652C27.1313 67.4069 26.1036 67.3553 25.1705 67.6993C24.6674 67.8842 24.203 68.1852 23.8375 68.5765C23.7558 68.6453 23.7773 68.7571 23.7687 68.8517C23.773 71.5779 23.7687 74.3084 23.7687 77.0389C23.7601 77.1421 23.7859 77.2625 23.7386 77.3614C22.6851 77.3872 21.6316 77.3657 20.5781 77.37C20.5781 73.2119 20.5781 69.0495 20.5781 64.8914C21.4639 64.8914 22.354 64.8914 23.2398 64.8914C23.4333 64.8785 23.644 64.9817 23.7128 65.1709C23.7816 65.3988 23.7601 65.6439 23.7644 65.8761H23.773Z" fill="#004759"/>
<path d="M46.4892 65.8847C47.332 65.0118 48.5532 64.5818 49.7529 64.5818C51.0214 64.5517 52.32 64.9258 53.2961 65.7471C53.9454 66.2545 54.4184 66.9683 54.6377 67.7638C54.9172 68.7356 54.8914 69.759 54.8871 70.7566C54.8871 72.9582 54.8871 75.1641 54.8871 77.3657C53.825 77.3657 52.7629 77.3743 51.7008 77.3614C51.7008 75.1598 51.7008 72.9582 51.7008 70.7523C51.7008 69.9353 51.7395 69.0495 51.3052 68.3228C50.9999 67.7982 50.4022 67.5402 49.8217 67.48C48.7209 67.3037 47.5685 67.7423 46.8117 68.5464C46.73 68.6281 46.6612 68.7313 46.6698 68.8517C46.6612 69.1914 46.7128 69.5354 46.6827 69.8751C46.6397 70.3395 46.7042 70.7996 46.6913 71.264C46.6741 72.1412 46.6784 73.0141 46.6913 73.8913C46.6311 75.048 46.7343 76.2133 46.6655 77.3657C45.6077 77.3657 44.5499 77.3657 43.4921 77.3657C43.4921 73.2033 43.4835 69.0452 43.4921 64.8828C44.3091 64.8871 45.1304 64.8828 45.9474 64.8828C46.1581 64.8699 46.3903 64.986 46.4462 65.201C46.4978 65.4203 46.4806 65.6525 46.4849 65.8804L46.4892 65.8847Z" fill="#004759"/>
<path d="M15.452 77.3657C15.452 73.2033 15.4434 69.0452 15.452 64.8828C16.5055 64.8828 17.559 64.8828 18.6125 64.8828C18.6211 69.0452 18.6125 73.2033 18.6125 77.3657C17.559 77.3657 16.5012 77.3657 15.4434 77.3657H15.452Z" fill="#004759"/>
<path d="M13.487 64.8869C12.6528 64.8869 11.8143 64.887 10.9801 64.8827C10.7608 64.8827 10.477 64.8912 10.3695 65.1234C10.2706 65.3599 10.3093 65.6265 10.3007 65.8759C9.60414 65.1363 8.62374 64.6977 7.62184 64.5988C6.06954 64.4612 4.46134 64.8913 3.21434 65.833C2.18664 66.5898 1.42984 67.6906 1.02994 68.8946C0.84074 69.4622 0.741841 70.0556 0.681641 70.649V71.5046C0.771941 73.2934 1.56744 75.0608 2.95204 76.2132C3.99694 77.099 5.34284 77.5934 6.70594 77.6794H7.41544C8.49474 77.6063 9.56114 77.1592 10.3007 76.3551C10.3093 76.6088 10.2706 76.8753 10.3652 77.1161C10.4641 77.3139 10.6963 77.3655 10.8984 77.3569C11.7584 77.3569 12.6227 77.3569 13.487 77.3569C13.487 73.1988 13.487 69.0408 13.487 64.8827V64.8869ZM10.2018 73.4784C9.55684 74.2524 8.55064 74.7082 7.54444 74.6738C6.46514 74.6824 5.34714 74.2696 4.64624 73.4225C3.96684 72.6141 3.76044 71.4917 3.91524 70.464C4.03134 69.6341 4.45274 68.8344 5.12354 68.3227C5.72984 67.8454 6.49524 67.596 7.26064 67.5444C8.40014 67.4455 9.60414 67.9486 10.2921 68.8688C10.3308 70.2233 10.2921 71.5864 10.3093 72.9452C10.2964 73.1258 10.348 73.3408 10.2018 73.4784Z" fill="#004759"/>
<path d="M41.6696 68.4559C41.1794 67.2562 40.3065 66.2113 39.2014 65.5319C38.0662 64.8224 36.6988 64.5042 35.3658 64.5945C34.3123 64.6633 33.2846 65.1148 32.5536 65.8802C32.5536 63.5496 32.5536 61.219 32.5536 58.8884C31.4915 58.8884 30.4251 58.8841 29.363 58.8884C29.3673 65.046 29.3544 71.2036 29.3716 77.3612C30.2531 77.3612 31.1346 77.3612 32.0118 77.3612C32.2311 77.3784 32.4676 77.258 32.5278 77.0387C32.5708 76.8151 32.5536 76.5829 32.5579 76.3507C33.2975 77.172 34.3811 77.6192 35.4733 77.6837H36.1226C37.8899 77.5934 39.6228 76.7678 40.7322 75.3789C42.2845 73.474 42.5898 70.7048 41.6696 68.4516V68.4559ZM37.9544 73.7062C37.2406 74.3684 36.2559 74.6823 35.2927 74.6737C34.2865 74.6952 33.2846 74.2351 32.6482 73.4568C32.5708 73.3751 32.545 73.2676 32.5493 73.1601C32.5493 71.7325 32.5493 70.3049 32.5493 68.8773C33.1599 68.0818 34.136 67.583 35.1379 67.5357C36.1527 67.5056 37.2148 67.8023 37.9587 68.5204C38.6682 69.1783 39.0122 70.163 38.9907 71.1176C39.0122 72.0722 38.6553 73.0526 37.9501 73.7105L37.9544 73.7062Z" fill="#004759"/>
<path d="M67.8948 66.9124C66.5446 65.1924 64.2312 64.3238 62.0769 64.642C61.1782 64.7839 60.3225 65.2139 59.6947 65.8761C59.6861 63.5455 59.6947 61.2149 59.6947 58.8843C58.6326 58.8843 57.5748 58.8843 56.5127 58.8843C56.5127 65.0419 56.5127 71.1995 56.5127 77.3571C57.3512 77.3614 58.1897 77.3571 59.0239 77.3614C59.2432 77.3614 59.5184 77.3485 59.6302 77.1249C59.7291 76.8841 59.6904 76.6132 59.699 76.3552C60.4343 77.1593 61.4921 77.6022 62.5671 77.6796H63.2852C65.031 77.585 66.7424 76.768 67.8475 75.4006C68.7505 74.3084 69.2407 72.9152 69.3181 71.5091V70.6749C69.2192 69.3161 68.7591 67.9702 67.8948 66.9038V66.9124ZM65.4137 73.3495C64.5709 74.4331 63.0874 74.8373 61.7716 74.6266C60.9675 74.4675 60.1935 74.0332 59.7162 73.3581C59.6646 72.8335 59.7119 72.3046 59.6947 71.7757C59.7076 70.8082 59.6689 69.8364 59.7119 68.8689C60.1935 68.2024 60.9675 67.7767 61.763 67.6004C63.2336 67.3295 64.945 67.91 65.6846 69.2688C66.3597 70.5244 66.2952 72.2057 65.4137 73.3495Z" fill="#004759"/>
</svg>
