<svg width="116" height="59" viewBox="0 0 116 59" fill="none" xmlns="http://www.w3.org/2000/svg">
<g clip-path="url(#clip0_12014_171)">
<path d="M12.2896 41.9903H0V41.1616C3.50373 41.1616 4.86173 40.0742 7.11378 34.4745L21.1287 0H21.5975L35.8733 37.842C36.6562 39.8634 37.9128 41.1616 41.2618 41.1616V41.9903H28.9722V41.1616C32.2681 41.1616 33.6793 40.5915 32.6837 37.9474L28.8127 27.3708H11.874L9.36583 33.7464C6.85764 40.1221 7.58739 41.1616 12.2945 41.1616V41.9903H12.2896ZM12.8647 24.8799H27.8752L20.6599 5.13023L12.8696 24.8799H12.8647Z" fill="#004759"/>
<path d="M53.1844 1.19263C62.2313 1.19263 70.3889 2.85001 70.3889 11.4052C70.3889 16.9521 65.9428 21.6704 58.2056 22.0824C65.5272 22.341 68.1949 25.0379 69.7123 31.5189C71.3845 38.5173 73.5834 41.1615 77.7588 41.1615V41.9901C76.9953 41.9901 76.6376 41.9901 75.9176 41.9901C71.254 41.9901 68.248 39.14 66.2618 31.3656C64.1692 23.2799 61.2937 23.0739 53.2376 23.0739H49.4197V37.6934C49.4197 40.7016 50.9372 41.1662 55.6974 41.1662V41.9949H41.1074V41.1662C45.3457 41.1662 46.2833 40.3902 46.2833 38.0574V4.81875C46.2833 2.43327 45.3409 1.96863 41.1074 1.96863V1.19263H53.1892H53.1844ZM49.4197 21.9291H51.7201C58.9885 21.9291 66.832 20.1136 66.832 11.7692C66.832 4.97683 62.125 2.59613 53.3391 2.59613H49.4149V21.9291H49.4197Z" fill="#004759"/>
<path d="M83.5245 4.87145C83.5245 2.64404 82.5821 2.02132 78.3486 2.02132V1.19263H91.8416V2.02132C87.6033 2.02132 86.6658 2.64404 86.6658 4.87145V38.0479C86.6658 40.2753 87.6081 41.1567 91.8416 41.1567V41.9854H78.3486V41.1567C82.5869 41.1567 83.5245 40.2753 83.5245 38.0479V4.87145ZM100.521 7.98503C105.383 3.31944 106.378 2.02132 100.888 2.02132V1.19263H113.961V2.02132C110.249 2.02132 107.422 3.88947 102.561 8.44967L90.01 20.1663L110.042 39.2406C111.351 40.486 113.913 41.1567 116.005 41.1567V41.9854H102.667V41.1567C105.857 41.1567 107.374 40.7399 105.755 39.1352L86.7189 21.1483L100.526 7.98024L100.521 7.98503Z" fill="#004759"/>
<path d="M2.07802 49.1899V55.0818C2.07802 57.0122 3.26688 58.3295 5.43677 58.3295C7.60667 58.3295 8.81002 57.0122 8.81002 55.0818V49.1899H9.58325V55.1057C9.58325 57.429 8.10927 58.9858 5.4416 58.9858C2.77394 58.9858 1.31445 57.429 1.31445 55.1057V49.1899H2.08769H2.07802Z" fill="#004759"/>
<path d="M16.8325 54.5453H13.2321V58.7175H12.4492V49.1899H17.0403C19.3407 49.1899 20.0849 50.4402 20.0849 51.8485C20.0849 53.0556 19.4228 54.1956 17.6734 54.4399L20.3942 58.7223H19.4712L16.8325 54.5501V54.5453ZM13.2321 53.8891H16.9823C18.6061 53.8891 19.2827 53.0029 19.2827 51.8485C19.2827 50.694 18.6593 49.851 16.9678 49.851H13.2321V53.8891Z" fill="#004759"/>
<path d="M30.5863 56.1165C30.5863 57.496 29.813 58.7175 27.4305 58.7175H22.7041V49.1899H27.3194C29.6632 49.1899 30.3543 50.4402 30.3543 51.6185C30.3543 52.6388 29.8275 53.5777 28.542 53.7933C29.9484 53.9561 30.5863 54.8806 30.5863 56.1165ZM23.4918 49.851V53.5011H27.3629C29.2573 53.5011 29.5811 52.4951 29.5811 51.6616C29.5811 50.7755 29.1365 49.851 27.2807 49.851H23.4918ZM29.813 56.0877C29.813 54.986 29.2283 54.1429 27.4547 54.1429H23.487V58.0613H27.3725C29.2428 58.0613 29.8082 57.1895 29.8082 56.0877H29.813Z" fill="#004759"/>
<path d="M39.2083 56.035H33.699L32.5101 58.7175H31.6982L36.0719 49.1899H36.8306L41.2187 58.7175H40.4068L39.2131 56.035H39.2083ZM38.9087 55.3788L37.0964 51.312C36.7726 50.627 36.6083 50.2773 36.4585 49.8606H36.4295C36.2797 50.2773 36.1299 50.627 35.7916 51.312L33.989 55.3788H38.9038H38.9087Z" fill="#004759"/>
<path d="M43.1562 49.1899H44.0889L50.125 56.9356C50.3956 57.2996 50.5696 57.5535 50.7339 57.8601H50.7484C50.7339 57.5391 50.7339 57.2182 50.7339 56.8254V49.1899H51.4395V58.7175H50.5599L44.4659 50.9096C44.2097 50.5599 44.0309 50.306 43.8569 49.9947H43.8424C43.8569 50.3013 43.8569 50.627 43.8569 51.015V58.7175H43.1514V49.1899H43.1562Z" fill="#004759"/>
<path d="M58.3164 55.7523L59.1138 55.6565C59.3168 57.3187 60.5201 58.3534 62.8253 58.3534C64.7874 58.3534 65.928 57.6827 65.928 56.3271C65.928 54.9715 65.1837 54.5404 63.5454 54.2865L61.3659 53.98C59.6599 53.7261 58.7417 52.9453 58.7417 51.5226C58.7417 49.8844 60.1238 48.9072 62.4774 48.9072C64.8309 48.9072 66.3339 49.8221 66.5949 51.8579L65.7975 51.9921C65.58 50.3012 64.4975 49.5491 62.4677 49.5491C60.612 49.5491 59.5439 50.2485 59.5439 51.4795C59.5439 52.5286 60.1818 53.089 61.7235 53.3333L63.8499 53.6399C65.7443 53.9225 66.735 54.6171 66.735 56.2553C66.735 58.0276 65.3142 58.9904 62.8108 58.9904C60.061 58.9904 58.587 57.7977 58.3309 55.7427L58.3164 55.7523Z" fill="#004759"/>
<path d="M76.7001 51.8723C76.7001 53.6016 75.4677 54.6889 73.5201 54.6889H69.8376V58.7126H69.0547V49.1851H73.5878C75.5257 49.1851 76.7001 50.2054 76.7001 51.8675V51.8723ZM75.8882 51.8723C75.8882 50.5981 75.0086 49.8461 73.5201 49.8461H69.8376V54.0327H73.5588C74.9941 54.0327 75.8882 53.1992 75.8882 51.8723Z" fill="#004759"/>
<path d="M83.8626 56.035H78.3533L77.1644 58.7175H76.3525L80.7262 49.1899H81.4849L85.873 58.7175H85.0611L83.8674 56.035H83.8626ZM83.563 55.3788L81.7507 51.312C81.4269 50.627 81.2626 50.2773 81.1128 49.8606H81.0838C80.934 50.2773 80.7842 50.627 80.4459 51.312L78.6432 55.3788H83.5581H83.563Z" fill="#004759"/>
<path d="M86.4961 53.9417C86.4961 50.8808 88.376 48.9072 91.44 48.9072C93.9578 48.9072 95.5285 50.2245 95.8813 52.3705L95.0694 52.4376C94.7601 50.6125 93.4456 49.5635 91.4013 49.5635C88.8545 49.5635 87.2983 51.2256 87.2983 53.9273C87.2983 56.6289 88.8303 58.3438 91.4255 58.3438C93.3731 58.3438 94.6731 57.3666 95.108 55.5942L95.8813 55.6996C95.369 57.7259 93.8902 59 91.3868 59C88.231 59 86.5009 56.9355 86.5009 53.9417H86.4961Z" fill="#004759"/>
<path d="M105.412 58.0756V58.7175H98.2109V49.1899H105.32V49.8318H98.9842V53.5106H105.088V54.1525H98.9842V58.0708H105.417L105.412 58.0756Z" fill="#004759"/>
<path d="M106.827 55.7523L107.625 55.6565C107.828 57.3187 109.031 58.3534 111.336 58.3534C113.298 58.3534 114.439 57.6827 114.439 56.3271C114.439 54.9715 113.694 54.5404 112.056 54.2865L109.877 53.98C108.171 53.7261 107.252 52.9453 107.252 51.5226C107.252 49.8844 108.635 48.9072 110.988 48.9072C113.342 48.9072 114.845 49.8221 115.106 51.8579L114.308 51.9921C114.091 50.3012 113.008 49.5491 110.978 49.5491C109.123 49.5491 108.055 50.2485 108.055 51.4795C108.055 52.5286 108.693 53.089 110.234 53.3333L112.361 53.6399C114.255 53.9225 115.246 54.6171 115.246 56.2553C115.246 58.0276 113.825 58.9904 111.322 58.9904C108.572 58.9904 107.098 57.7977 106.842 55.7427L106.827 55.7523Z" fill="#004759"/>
</g>
<defs>
<clipPath id="clip0_12014_171">
<rect width="116" height="59" fill="white"/>
</clipPath>
</defs>
</svg>
