<svg width="111" height="72" viewBox="0 0 111 72" fill="none" xmlns="http://www.w3.org/2000/svg">
<g clip-path="url(#clip0_12014_154)">
<path d="M27.0355 44.0444C25.6279 44.0444 24.4844 45.178 24.4844 46.5695C24.4844 47.961 25.6297 49.0946 27.0355 49.0946C28.4414 49.0946 29.5867 47.961 29.5867 46.5695C29.5867 45.178 28.4414 44.0444 27.0355 44.0444Z" fill="#004659"/>
<path d="M103.886 62.2596L100.666 58.5195L110.844 49.4731C111.001 49.3339 111.046 49.1116 110.953 48.9198C110.873 48.7552 110.696 48.6568 110.511 48.6568H107.461C107.283 48.6568 107.111 48.723 106.979 48.8452L97.1225 57.9069C97.0728 57.9527 96.9905 57.9171 96.9905 57.8492V38.8807C96.9905 38.6736 96.8859 38.4836 96.7162 38.3699C96.5447 38.2545 96.327 38.2307 96.1349 38.3071L91.0858 40.2993C90.844 40.3944 90.6897 40.6217 90.6914 40.8797C90.6948 41.1376 90.8543 41.3616 91.0978 41.4533C91.883 41.7434 92.8191 42.6496 92.8191 45.3138V66.7667C92.8191 68.7996 92.2945 69.7126 91.8539 70.1199C91.667 70.293 91.6087 70.5577 91.703 70.7936C91.799 71.0311 92.027 71.1839 92.2842 71.1839H97.4894C97.7483 71.1839 97.9712 71.0362 98.0689 70.797C98.1632 70.5628 98.1066 70.298 97.9232 70.1199C97.5151 69.7296 97.0231 68.8641 96.9922 66.9584V60.8223C96.9922 60.7493 97.0848 60.7154 97.1311 60.7731C99.0942 63.159 105.357 70.8173 105.431 70.9056C105.566 71.0719 105.767 71.1669 105.983 71.1669H110.466C110.658 71.1669 110.84 71.0634 110.919 70.8903C110.995 70.7257 110.967 70.5373 110.849 70.3982L103.893 62.2613L103.886 62.2596Z" fill="#004659"/>
<path d="M90.6554 49.081C90.009 48.8112 89.2992 48.6568 88.706 48.6568C85.6662 48.6568 83.8882 51.08 82.791 53.0824V49.2728C82.791 49.064 82.6847 48.8706 82.5064 48.7535C82.328 48.6398 82.1069 48.6211 81.9131 48.7077L77.2634 50.7491C77.0285 50.8526 76.8828 51.0834 76.8931 51.3346C76.9017 51.5891 77.0645 51.8097 77.308 51.8963C78.2595 52.234 78.7619 53.3353 78.7619 55.0814V67.1077C78.707 68.915 78.227 69.7431 77.8344 70.1181C77.6492 70.2946 77.5926 70.561 77.6886 70.7952C77.7863 71.0328 78.0075 71.1804 78.2664 71.1804H82.6487H83.379C83.6379 71.1804 83.8591 71.0328 83.9568 70.7952C84.0528 70.5593 83.9963 70.2946 83.8111 70.1181C83.4185 69.7414 82.9384 68.915 82.8835 67.1145V60.3505C82.8835 57.5675 83.415 55.4785 84.4643 54.1413C85.4896 52.833 86.6794 52.6921 87.1441 52.6921C88.4591 52.6921 89.0009 52.8703 90.0553 54.0531C90.2285 54.2448 90.4976 54.3093 90.7411 54.2177C90.9845 54.1244 91.144 53.8987 91.144 53.6407V49.8107C91.144 49.4934 90.952 49.2066 90.6554 49.0827V49.081Z" fill="#004659"/>
<path d="M29.5851 67.0975V52.1219C29.5851 51.864 29.3725 51.6536 29.1119 51.6536H24.8719C24.613 51.6536 24.3919 51.8012 24.2941 52.0388C24.1981 52.2746 24.2547 52.5394 24.4399 52.7159C24.8325 53.0926 25.3125 53.919 25.3674 55.7195V67.0873C25.3125 68.8946 24.8325 69.7227 24.4399 70.0977C24.2547 70.2742 24.1981 70.5406 24.2941 70.7748C24.3919 71.0124 24.613 71.16 24.8719 71.16H30.0788C30.3377 71.16 30.5589 71.0124 30.6566 70.7748C30.7526 70.5389 30.6961 70.2742 30.5109 70.0977C30.1183 69.721 29.6382 68.8946 29.5834 67.0941L29.5851 67.0975Z" fill="#004659"/>
<path d="M22.4888 44.0495C20.5994 43.0907 18.2729 42.1116 15.3497 42.1116C10.6211 42.1116 6.6383 43.8068 3.83509 47.0124C1.39708 49.8005 -0.00195312 53.6729 -0.00195312 57.637C-0.00195312 61.6011 1.24963 64.9916 3.51963 67.5574C6.09309 70.4643 9.83412 72 14.3398 72C16.8858 72 19.4627 71.2381 21.5956 69.8534C21.8596 69.682 22.1151 69.5021 22.3551 69.3188C22.458 69.2407 22.5248 69.1237 22.5385 68.9964C22.5523 68.8674 22.5128 68.7435 22.4288 68.6451L20.9475 66.9159C20.8635 66.8192 20.7469 66.7598 20.6183 66.7513C20.4897 66.7428 20.3663 66.7853 20.272 66.8701C20.2411 66.899 20.2085 66.9261 20.1777 66.9533C18.8695 68.0749 17.2459 68.5959 15.0685 68.5959C8.07676 68.5959 4.89294 62.4852 4.89294 56.8072C4.89294 51.1292 7.93789 45.3511 14.621 45.3511C16.8207 45.3511 18.7769 45.9212 20.2788 47.0022C20.4829 47.1498 20.7675 47.1091 20.9252 46.9123L22.6448 44.7588C22.7323 44.6485 22.7666 44.5077 22.7357 44.3702C22.7049 44.2328 22.6157 44.1174 22.4888 44.0529V44.0495Z" fill="#004659"/>
<path d="M74.7638 66.7632V56.0622C74.7638 53.8257 74.0128 51.9709 72.5949 50.6948C71.0913 49.3423 68.9122 48.6567 66.121 48.6567C63.9059 48.6567 62.0028 49.2592 60.6157 50.4012C59.3676 51.4279 58.6372 52.8075 58.5583 54.2855C58.5515 54.4128 58.5995 54.5384 58.6869 54.6317C58.7761 54.725 58.9012 54.7776 59.0298 54.7776H62.2702C62.5205 54.7776 62.728 54.5825 62.7417 54.3364C62.8617 52.4206 64.5711 51.3871 66.1193 51.3871C69.0871 51.3871 70.5907 52.9602 70.5907 56.0639V57.6862C66.1964 58.6789 62.8669 59.9958 60.6946 61.5994C58.7264 63.052 57.7285 64.7031 57.7285 66.5104C57.7285 68.1921 58.4212 69.6073 59.7328 70.6034C60.9192 71.5045 62.5634 72.0017 64.3619 72.0017C65.9015 72.0017 67.3949 71.6963 68.6773 71.1176C69.358 70.8105 69.9563 70.4388 70.4621 70.0044C70.5135 69.9603 70.5924 69.9959 70.5924 70.0621V70.7137C70.5924 70.9717 70.8033 71.1821 71.0656 71.1821H75.2644C75.5233 71.1821 75.7445 71.0345 75.8422 70.7969C75.9399 70.5627 75.8816 70.2963 75.6965 70.1181C75.2713 69.7108 74.7638 68.7979 74.7638 66.7632ZM70.5907 60.342V64.7829C70.5907 67.291 67.9281 69.0388 65.5381 69.0388C63.4172 69.0388 61.9925 67.7593 61.9925 65.8554C61.9925 63.4423 64.6448 61.7402 70.5907 60.342Z" fill="#004659"/>
<path d="M55.047 68.2378C54.9047 68.0732 54.6715 68.024 54.4761 68.1224C53.888 68.416 53.3085 68.5704 52.801 68.5704C52.1341 68.5704 51.5906 68.3481 51.186 67.9069C51.138 67.8543 51.0882 67.7966 51.0402 67.7321C50.8911 67.5336 50.7642 67.3011 50.6596 67.0381C50.4162 66.4255 50.2927 65.6364 50.2927 64.6895V51.6654H55.3368C55.6814 51.6654 55.9608 51.3888 55.9608 51.0477V49.2761C55.9608 48.935 55.6814 48.6584 55.3368 48.6584H50.2927V44.6332C50.2927 44.6027 50.291 44.5755 50.2876 44.5535C50.2584 44.3244 50.1024 44.1309 49.8795 44.0529C49.6549 43.9714 49.3943 44.0342 49.216 44.209L49.2057 44.2192L45.4013 48.6567H38.737V44.6519C38.737 44.3821 38.5724 44.1411 38.3272 44.0529C38.0786 43.9629 37.806 44.0325 37.6363 44.2327L32.1396 50.6472C31.9802 50.8322 31.9459 51.085 32.0487 51.3073C32.1533 51.5279 32.3694 51.6654 32.6145 51.6654H34.6119V65.6686C34.6119 67.0703 34.8777 68.2921 35.404 69.3018C35.5926 69.6667 35.8172 70.0044 36.071 70.3013C36.8836 71.2601 37.9946 71.8354 39.2856 71.9677L39.3388 71.9728C39.5137 71.9898 39.6954 71.9966 39.8789 71.9966C39.9732 71.9966 40.0589 71.9949 40.1377 71.9915C41.2333 71.9474 42.2826 71.5893 43.2581 70.9309C43.6336 70.6764 44.0108 70.3132 44.3794 69.8499C44.5183 69.6768 44.5131 69.4274 44.3674 69.2577L43.493 68.2361C43.3507 68.0715 43.1158 68.024 42.9221 68.119C42.5123 68.3227 41.8883 68.5653 41.2436 68.5653C40.8853 68.5653 40.5612 68.5009 40.2783 68.3736C40.0349 68.265 39.8154 68.1072 39.6268 67.9018C39.5788 67.8492 39.5308 67.7915 39.4811 67.727C38.9856 67.0669 38.7353 66.0437 38.7353 64.6844V51.6603H46.1676V65.6636C46.1676 66.6223 46.2945 67.5081 46.5448 68.2955C46.658 68.6502 46.7969 68.9879 46.958 69.2984C47.1466 69.6633 47.3712 70.001 47.625 70.2979C48.4376 71.2567 49.5486 71.832 50.8414 71.9643L50.8945 71.9694C51.0694 71.9864 51.2511 71.9932 51.4346 71.9932C52.6879 71.9932 53.8589 71.6233 54.819 70.9224C55.227 70.6254 55.6008 70.2657 55.9317 69.855C56.0723 69.6802 56.0689 69.4291 55.9231 69.2594L55.0436 68.2344L55.047 68.2378Z" fill="#004659"/>
<path d="M63.0407 11.1914H63.039C60.9577 11.1914 59.2705 12.8613 59.2705 14.9213V14.923C59.2705 16.983 60.9577 18.6529 63.039 18.6529H63.0407C65.122 18.6529 66.8092 16.983 66.8092 14.923V14.9213C66.8092 12.8613 65.122 11.1914 63.0407 11.1914Z" fill="#004659"/>
<path d="M53.3951 27.0578L51.1559 29.274L44.1934 22.3827V7.45968L51.1559 0.568359L53.3968 2.78628C52.3544 4.06408 51.732 5.68976 51.732 7.45968V22.381C51.732 24.1509 52.3561 25.7783 53.3951 27.0578Z" fill="#004659"/>
<path d="M59.2703 29.8444H51.7334L53.9417 27.6587C55.3047 29.0095 57.1889 29.8444 59.2703 29.8444Z" fill="#004659"/>
<path d="M53.9407 2.18567L51.7324 0H59.2694C57.188 0 55.3037 0.834901 53.9407 2.18567Z" fill="#004659"/>
<path d="M66.8073 7.4598H59.2703L53.9417 2.18567L51.7334 0H59.2703C63.4348 0 66.8073 3.3396 66.8073 7.4598Z" fill="#004659"/>
<path d="M66.8073 22.3811C66.8073 26.503 63.4314 29.8443 59.2703 29.8443H51.7334L53.9417 27.6586L59.2703 22.3811H66.8073Z" fill="#004659"/>
</g>
<defs>
<clipPath id="clip0_12014_154">
<rect width="111" height="72" fill="white"/>
</clipPath>
</defs>
</svg>
