<svg width="194" height="47" viewBox="0 0 194 47" fill="none" xmlns="http://www.w3.org/2000/svg">
<path fill-rule="evenodd" clip-rule="evenodd" d="M0.810677 42.2846H0.993663C0.966428 42.4857 0.946001 42.6808 0.946001 42.8845C0.946001 43.8771 1.58177 44.5063 2.4967 44.5063C3.25843 44.5063 3.78271 43.8969 3.78271 43.1451C3.78271 41.7641 1.56049 40.8992 1.56049 39.3145C1.56049 38.2502 2.47117 37.5813 3.41418 37.5813C4.07634 37.5813 4.71551 37.9818 4.92658 37.9818C5.20489 37.9818 5.28405 37.8049 5.42788 37.5813H5.60576L5.09595 39.8954H4.91637C4.93765 39.7374 4.95722 39.589 4.95722 39.431C4.95722 38.5126 4.36912 37.9447 3.5078 37.9447C2.96906 37.9447 2.38946 38.3555 2.38946 39.015C2.38946 40.3503 4.69083 41.1435 4.69083 42.7895C4.69083 44.0678 3.71207 44.8809 2.56138 44.8809C1.76561 44.8809 1.36389 44.4649 0.911106 44.4649C0.687268 44.4649 0.522155 44.666 0.447258 44.8809H0.261719L0.810677 42.2846ZM11.7124 43.7908L11.6443 44.1352L11.783 44.2672C12.0145 44.2672 12.3899 43.7511 12.5337 43.5448L12.7022 43.6665C12.4299 44.0972 11.8213 44.8473 11.3005 44.8473C11.0221 44.8473 10.8383 44.666 10.8383 44.3622C10.8383 44.193 10.9541 43.8003 10.9941 43.6449L11.5217 41.6476C11.6622 41.1211 11.7362 40.92 11.7362 40.7801C11.7362 40.5419 11.492 40.4962 11.3132 40.4962L11.0162 40.5419V40.3347L12.6026 40.0585H12.7031L11.7132 43.7899L11.7124 43.7908ZM12.6222 38.0112C12.8954 38.0163 13.1141 38.2442 13.1099 38.5213C13.1099 38.8139 12.8895 39.0417 12.6222 39.0417C12.3456 39.0374 12.1243 38.8061 12.1286 38.5256C12.1286 38.5239 12.1286 38.5221 12.1286 38.5213C12.1286 38.2382 12.3507 38.0112 12.6222 38.0112ZM19.9902 42.3122L20.0089 42.3372C20.3655 41.6105 21.2268 40.0611 22.1511 40.0611C22.4796 40.0611 22.7052 40.3209 22.7052 40.6601C22.7052 40.8906 22.6192 41.2195 22.5639 41.4301L22.2524 42.547L22.2737 42.5694C22.6541 41.8306 23.5929 40.062 24.512 40.062C24.8576 40.062 25.0721 40.3382 25.0721 40.6809C25.0721 41.0926 25.0023 41.2842 24.604 42.7196C24.4474 43.2694 24.2261 44.0152 24.2261 44.1093L24.3537 44.269C24.5537 44.269 24.9359 43.7528 25.0559 43.5767L25.2168 43.6699C24.9555 44.1369 24.3495 44.8507 23.8763 44.8507C23.638 44.8507 23.4592 44.6695 23.4592 44.4062C23.4592 44.1731 23.5784 43.7321 23.9103 42.5444C24.2261 41.3766 24.2959 41.1262 24.2959 40.9355C24.2959 40.7741 24.2371 40.6714 24.0678 40.6714C23.4388 40.6714 22.2643 42.7938 21.9341 43.8797L21.6694 44.7238H20.9451L21.7434 41.7261C21.7919 41.525 21.9094 41.1461 21.9094 40.9433C21.9094 40.8069 21.8651 40.6714 21.66 40.6714C21.1425 40.6714 19.9357 42.4555 19.4855 44.1852L19.3476 44.7238H18.6139L19.4352 41.6519C19.5791 41.1254 19.6438 40.9243 19.6438 40.7844C19.6438 40.5462 19.4089 40.5005 19.2284 40.5005L18.9297 40.5462V40.3391L20.5127 40.0629H20.6157L19.991 42.3122H19.9902ZM32.2851 42.9078C32.783 41.0917 33.6222 40.5117 34.1294 40.5117C34.5967 40.5117 34.7499 40.964 34.7499 41.3886C34.7499 42.7999 33.7005 44.5633 32.7711 44.5633C32.4638 44.5633 32.1311 44.445 31.9362 44.1826L32.2851 42.9078ZM33.0681 40.0603H32.972L31.3847 40.3365V40.5436L31.6851 40.4979C31.8604 40.4979 32.1038 40.5436 32.1038 40.7819C32.1038 40.9217 32.0323 41.1245 31.8953 41.6493L30.7259 45.9357C30.5225 46.6521 30.3659 46.779 29.8042 46.779L29.7599 46.9646H32.0528L32.1038 46.779C31.8017 46.779 31.3651 46.779 31.3651 46.4311C31.3651 46.2533 31.4579 45.9685 31.5021 45.7855L31.823 44.5857C32.0953 44.7627 32.3396 44.849 32.6528 44.849C34.338 44.849 35.5584 42.7188 35.5584 41.3671C35.5584 40.6895 35.1729 40.0603 34.5431 40.0603C33.7669 40.0603 33.1924 40.6489 32.7524 41.2488L32.7294 41.2255L33.0681 40.0603ZM42.3332 43.7908L42.2634 44.1352L42.4038 44.2672C42.6302 44.2672 43.0106 43.7511 43.1511 43.5448L43.3196 43.6665C43.0481 44.0972 42.4438 44.8473 41.9229 44.8473C41.6412 44.8473 41.4523 44.666 41.4523 44.3622C41.4523 44.193 41.5689 43.8003 41.6131 43.6449L42.8583 38.9891C43.003 38.4565 43.0694 38.2589 43.0694 38.126C43.0694 37.8808 42.8311 37.8403 42.6489 37.8403L42.351 37.8808V37.6797L43.9383 37.3983H44.0379L42.3323 43.789L42.3332 43.7908ZM53.0161 43.6337C52.4246 44.2517 51.668 44.8481 50.8016 44.8481C49.6271 44.8481 49.382 43.7096 49.382 43.3031C49.382 41.7399 50.8305 40.0603 52.3208 40.0603C52.7821 40.0603 53.3591 40.2104 53.3591 40.8172C53.3591 41.9359 51.7872 42.6307 50.2543 42.7921C50.2331 42.9311 50.222 43.0709 50.2203 43.2107C50.2203 43.8546 50.719 44.3069 51.3063 44.3069C51.8936 44.3069 52.3438 43.9513 52.9123 43.4887L53.0161 43.6345V43.6337ZM52.6655 40.8052C52.6655 40.491 52.4638 40.3149 52.1761 40.3149C51.2135 40.3149 50.456 41.6346 50.2977 42.528C52.0033 42.3122 52.6655 41.3671 52.6655 40.8052ZM60.9399 40.0603H60.836L59.2555 40.3365V40.5436L59.5526 40.4979C59.7305 40.4979 59.9713 40.5436 59.9713 40.7819C59.9713 40.9217 59.9032 41.1245 59.7619 41.6493L58.9406 44.7212H59.6717L59.8122 44.1826C60.2632 42.4529 61.4675 40.6688 61.9842 40.6688C62.1961 40.6688 62.2369 40.8043 62.2369 40.9407C62.2369 41.1444 62.1186 41.5224 62.0684 41.7235L61.2692 44.7212H61.9978L62.2548 43.8771C62.5901 42.7904 63.7647 40.6688 64.3945 40.6688C64.5647 40.6688 64.6251 40.7732 64.6251 40.9329C64.6251 41.1228 64.5536 41.374 64.2285 42.5418C63.9059 43.7304 63.78 44.1706 63.78 44.4036C63.78 44.6669 63.9613 44.8481 64.203 44.8481C64.6736 44.8481 65.2839 44.1343 65.5409 43.6673L65.3783 43.5741C65.2566 43.7502 64.8839 44.2664 64.683 44.2664L64.5528 44.1067C64.5528 44.0126 64.7732 43.2668 64.929 42.717C65.3298 41.2816 65.4022 41.09 65.4022 40.6783C65.4022 40.3356 65.18 40.0594 64.8421 40.0594C63.9093 40.0594 62.9748 41.828 62.5961 42.5668L62.574 42.5444L62.8838 41.4275C62.9425 41.2169 63.0251 40.8889 63.0251 40.6576C63.0251 40.3183 62.8021 40.0585 62.4735 40.0585C61.5441 40.0585 60.6888 41.6079 60.3296 42.3347L60.3067 42.3096L60.9399 40.0603ZM72.3939 42.5271C72.5573 41.6338 73.3114 40.314 74.2706 40.314C74.5617 40.314 74.7642 40.4901 74.7642 40.8043C74.7651 41.3671 74.1063 42.3122 72.3939 42.5271ZM75.0111 43.4869C74.4374 43.9496 73.9812 44.3052 73.4067 44.3052C72.8323 44.3052 72.3165 43.8529 72.3165 43.209C72.3165 43.0631 72.3386 42.9121 72.3565 42.7904C73.8868 42.629 75.4562 41.9341 75.4562 40.8155C75.4562 40.2087 74.8834 40.0585 74.4238 40.0585C72.9267 40.0585 71.4799 41.7399 71.4799 43.3014C71.4799 43.7079 71.7275 44.8464 72.8952 44.8464C73.7625 44.8464 74.5208 44.25 75.1115 43.632L75.0111 43.4861V43.4869ZM82.4156 42.2915L82.4369 42.3113C82.928 41.5535 83.8267 40.0603 84.7229 40.0603C85.0625 40.0603 85.283 40.3365 85.283 40.6791C85.283 41.0909 85.2149 41.2825 84.8148 42.7179C84.6574 43.2677 84.4353 44.0135 84.4353 44.1076L84.5621 44.2672C84.7629 44.2672 85.1451 43.7511 85.2617 43.575L85.4183 43.6682C85.1621 44.1352 84.5527 44.849 84.0838 44.849C83.8489 44.849 83.6642 44.6677 83.6642 44.4045C83.6642 44.1714 83.7901 43.7304 84.1144 42.5427C84.4353 41.3748 84.5016 41.1245 84.5016 40.9338C84.5016 40.7724 84.4421 40.6696 84.2736 40.6696C83.6727 40.6696 82.4003 42.6445 82.0777 43.6967L81.7688 44.7221H81.0394L81.8769 41.6502C82.0207 41.1237 82.0888 40.9225 82.0888 40.7827C82.0888 40.5445 81.8445 40.4987 81.6692 40.4987L81.3722 40.5445V40.3373L82.9561 40.0611H83.0624L82.4156 42.2915ZM93.2731 40.1828H94.0569L93.9633 40.5195H93.1965L92.3973 43.4213C92.3479 43.6017 92.2262 43.9919 92.2262 44.1835L92.359 44.3648C92.656 44.3648 93.0382 43.7623 93.1726 43.5465L93.3471 43.6682C93.0799 44.0989 92.4654 44.849 91.9505 44.849C91.6679 44.849 91.4815 44.6677 91.4815 44.3639C91.4815 44.1947 91.5683 43.7899 91.6117 43.6337L92.4466 40.5195H91.713L91.7615 40.3132C92.5794 40.1008 92.936 39.6468 93.4467 38.7759H93.6586L93.2748 40.1811L93.2731 40.1828ZM100.283 42.5271C100.444 41.6338 101.204 40.314 102.159 40.314C102.445 40.314 102.648 40.4901 102.648 40.8043C102.648 41.3671 101.987 42.3122 100.284 42.5271H100.283ZM102.896 43.4869C102.333 43.9496 101.871 44.3052 101.291 44.3052C100.701 44.3173 100.215 43.8417 100.203 43.2444C100.203 43.2323 100.203 43.2211 100.203 43.209C100.203 43.0631 100.225 42.9121 100.244 42.7904C101.77 42.629 103.347 41.9341 103.347 40.8155C103.347 40.2087 102.771 40.0585 102.308 40.0585C100.813 40.0585 99.3678 41.7399 99.3678 43.3014C99.3678 43.7079 99.6163 44.8464 100.781 44.8464C101.652 44.8464 102.412 44.25 103 43.632L102.896 43.4861V43.4869ZM117.709 43.7908L117.642 44.1352L117.782 44.2672C118.009 44.2672 118.386 43.7511 118.53 43.5448L118.698 43.6665C118.424 44.0972 117.816 44.8473 117.3 44.8473C117.02 44.8473 116.832 44.666 116.832 44.3622C116.832 44.193 116.948 43.8003 116.988 43.6449L118.234 38.9891C118.379 38.4565 118.445 38.2589 118.445 38.126C118.445 37.8808 118.206 37.8403 118.029 37.8403L117.728 37.8808V37.6797L119.318 37.3983H119.411L117.709 43.789V43.7908ZM126.406 44.5978C125.829 44.5978 125.553 44.1429 125.553 43.5759C125.553 42.3959 126.385 40.3149 127.469 40.3149C128.008 40.3149 128.268 40.7741 128.268 41.2954C128.267 42.7567 127.337 44.5978 126.406 44.5978ZM126.296 44.8481C127.779 44.8481 129.079 43.2237 129.079 41.7002C129.079 40.781 128.52 40.0594 127.617 40.0594C126.119 40.0594 124.743 41.683 124.743 43.2228C124.744 44.1947 125.378 44.8481 126.297 44.8481H126.296ZM146.202 43.3549L150.04 37.7358H151.61L151.566 37.9231H151.355C150.769 37.9231 150.586 38.4539 150.489 38.8544L149.299 43.2297C149.25 43.4196 149.109 43.8918 149.109 44.0782C149.109 44.477 149.493 44.5331 149.892 44.5331L149.838 44.7212H147.222L147.277 44.5331C147.992 44.5331 148.114 44.4036 148.378 43.4127L149.56 39.0858L149.537 39.0607L145.696 44.7221H145.515L144.896 39.0607H144.876L143.747 43.2306C143.699 43.4205 143.559 43.8926 143.559 44.0791C143.559 44.4778 143.939 44.5339 144.342 44.5339L144.29 44.7221H142.178L142.223 44.5339C142.936 44.5339 143.055 44.4045 143.335 43.4136L144.749 38.2606C144.516 37.9844 144.232 37.924 143.899 37.924L143.951 37.7367H145.593L146.202 43.3557V43.3549ZM157.168 42.5271C157.321 41.6338 158.083 40.314 159.041 40.314C159.328 40.314 159.528 40.4901 159.528 40.8043C159.528 41.3671 158.875 42.3122 157.168 42.5271ZM159.774 43.4869C159.208 43.9496 158.754 44.3052 158.172 44.3052C157.583 44.3156 157.098 43.8391 157.088 43.2418C157.088 43.2306 157.088 43.2202 157.088 43.209C157.088 43.0631 157.107 42.9121 157.12 42.7904C158.647 42.629 160.226 41.9341 160.226 40.8155C160.226 40.2087 159.649 40.0585 159.193 40.0585C157.691 40.0585 156.242 41.7399 156.242 43.3014C156.242 43.7079 156.494 44.8464 157.662 44.8464C158.527 44.8464 159.29 44.25 159.878 43.632L159.774 43.4861V43.4869ZM167.496 38.5213C167.487 38.7992 167.702 39.0323 167.976 39.0417C167.98 39.0417 167.982 39.0417 167.986 39.0417C168.26 39.0348 168.477 38.8035 168.469 38.5247C168.469 38.5239 168.469 38.5221 168.469 38.5213C168.475 38.2451 168.258 38.0163 167.986 38.0112C167.713 38.0146 167.494 38.2416 167.496 38.5178V38.5213ZM166.371 40.3373V40.5445L166.679 40.4987C166.854 40.4987 167.093 40.5445 167.093 40.7827C167.093 40.9225 167.026 41.1254 166.885 41.6502L165.877 45.3099C165.69 45.978 165.469 46.7505 164.672 46.7505L164.527 46.6789C164.527 46.5986 164.717 46.5805 164.717 46.3586C164.717 46.2007 164.509 46.0954 164.378 46.0954C164.184 46.0954 163.98 46.2758 163.98 46.4872C163.98 46.8618 164.318 47 164.62 47C165.656 47 166.404 46.1411 166.832 44.5503L168.062 40.0611H167.961L166.371 40.3365V40.3373ZM175.562 44.5978C174.989 44.5978 174.709 44.1429 174.709 43.5759C174.709 42.3959 175.544 40.3149 176.623 40.3149C177.161 40.3149 177.425 40.7741 177.425 41.2954C177.424 42.7567 176.497 44.5978 175.562 44.5978ZM175.445 44.8481C176.939 44.8481 178.232 43.2237 178.232 41.7002C178.232 40.781 177.674 40.0594 176.778 40.0594C175.273 40.0594 173.902 41.683 173.902 43.2228C173.902 44.1947 174.531 44.8481 175.445 44.8481ZM184.849 41.6502C184.994 41.1237 185.061 40.9225 185.061 40.7827C185.061 40.5445 184.819 40.4987 184.64 40.4987L184.341 40.5445V40.3373L185.929 40.0611H186.03L185.317 42.4969L185.34 42.5185C185.629 41.9281 186.793 40.062 187.504 40.062C187.739 40.062 187.847 40.2243 187.847 40.4608C187.847 40.7585 187.702 41.3343 187.347 41.3343C186.917 41.3343 187.198 40.8492 186.855 40.8492C186.659 40.8492 185.288 42.5038 184.904 44.1429L184.766 44.723H184.031L184.849 41.651L184.849 41.6502ZM188.494 12.0287C188.494 10.5364 189.636 9.31329 191.029 9.31329C192.423 9.31329 193.563 10.5381 193.563 12.0287C193.563 13.5194 192.416 14.758 191.029 14.758C189.643 14.758 188.494 13.5315 188.494 12.0287ZM191.029 15.2353C192.669 15.2353 194 13.8042 194 12.0287C194 10.2533 192.657 8.83252 191.029 8.83252C189.402 8.83252 188.05 10.2774 188.05 12.0287C188.049 13.8042 189.392 15.2353 191.029 15.2353ZM189.899 13.6385H190.471V12.2782H191.15L191.634 13.6385H192.263L191.681 12.1832C191.882 12.0736 192.227 11.9519 192.227 11.3529C192.227 10.3724 191.546 10.2662 190.955 10.2662H189.901V13.6394H189.9L189.899 13.6385ZM190.471 10.848H191.1C191.446 10.848 191.632 10.9982 191.632 11.2977C191.632 11.5972 191.417 11.7284 191.148 11.7284H190.469V10.8471H190.47L190.471 10.848Z" fill="#004759"/>
<path fill-rule="evenodd" clip-rule="evenodd" d="M30.9067 0.270996H21.691L30.9067 14.1875V0.270996ZM0.257812 32.6821H9.4735L0.257812 18.7535V32.6821ZM30.9067 22.9381L17.7436 32.6821H30.9067V22.9381ZM0.257812 0.270996V10.022L13.4243 0.270996H0.257812Z" fill="#004759"/>
<path fill-rule="evenodd" clip-rule="evenodd" d="M8.37735 16.4731L4.19251 12.0452L0 16.4731L4.19251 20.9019L8.37735 16.4731ZM19.7693 16.4731L15.5827 12.0443L11.3945 16.4731L15.5827 20.9019L19.7693 16.4731ZM14.0763 22.4996L9.88465 18.0674L5.69895 22.4996L9.88465 26.9284L14.0763 22.4996ZM25.4682 22.4996L21.2791 18.0674L17.0875 22.4996L21.2791 26.9284L25.4682 22.4996ZM14.0763 10.4536L9.88465 6.02734L5.69895 10.4536L9.88465 14.8789L14.0763 10.4536ZM25.4682 10.4536L21.2791 6.02734L17.0875 10.4536L21.2791 14.8789L25.4682 10.4536ZM19.7693 4.42621L15.5861 0L11.3936 4.42621L15.5861 8.85501L19.7684 4.42621H19.7693ZM31.1663 16.4731L26.9738 12.0452L22.7847 16.4731L26.9738 20.9019L31.1663 16.4731ZM19.7693 28.5235L15.587 24.0938L11.3945 28.5235L15.587 32.9523L19.7693 28.5235ZM39.1701 8.60642H42.6264V32.6908H39.1701V8.60642ZM46.3201 16.8728H49.4803V20.6335H49.5407C50.0462 19.47 51.5093 16.5128 54.826 16.5128C57.461 16.5128 58.5836 18.8416 58.5836 21.1298V32.6916H55.4235V22.7931C55.4235 20.8001 55.1409 19.0056 53.5255 19.0056C50.3654 19.0056 49.4803 24.1845 49.4803 26.1516V32.6916H46.3201V16.8736V16.8728ZM69.8581 32.8099C69.2249 32.9765 68.3848 33.0429 67.6537 33.0429C64.6732 33.0429 62.9523 32.0736 62.9523 29.0103V18.5999H60.5598V16.8728H62.9523V13.1457L66.1107 11.1173V16.8736H70.2036V18.6008H66.1107V27.6863C66.1107 30.0107 66.3294 31.1354 68.3848 31.1354C68.8819 31.1354 69.4223 31.0663 69.8581 30.8713V32.809V32.8099ZM74.8753 21.4578C74.9417 20.5567 75.4106 17.893 77.8669 17.893C80.3232 17.893 80.6432 20.2252 80.6432 21.4578H74.8753ZM83.4765 30.608C82.5837 31.0473 81.6041 31.2743 80.6117 31.2709C76.106 31.2709 74.78 26.0946 74.78 22.9726H83.7539C83.7539 19.9266 82.8407 16.5128 77.9971 16.5128C73.1535 16.5128 71.6156 19.6909 71.6156 24.0714C71.6156 30.4388 74.9391 33.0438 79.0993 33.0438C80.9862 33.0438 82.1539 32.7115 83.4748 32.1427V30.608H83.4765ZM86.0221 16.8702H89.1788V20.8873H89.2469C90.2529 18.7639 91.3483 16.7416 94.0871 16.512V19.9861C91.0359 20.0906 89.1771 21.1825 89.1771 25.4447V32.6908H86.0204V16.8702H86.0213H86.0221ZM106.897 32.2385C105.617 32.7408 104.265 33.0438 102.917 33.0438C98.1698 33.0438 95.4055 30.0029 95.4055 24.1327C95.4055 19.4199 97.4472 16.512 101.757 16.512C105.77 16.512 107.125 18.7536 107.125 22.0154H103.791C103.791 20.1199 103.604 17.8947 101.627 17.8947C99.8056 17.8947 98.8677 20.1484 98.8677 23.0028C98.8677 26.8525 100.401 31.2692 104.231 31.2692C105.145 31.2692 106.023 31.0344 106.896 30.671V32.2385H106.897ZM112.059 21.4578C112.127 20.5567 112.591 17.893 115.056 17.893C117.52 17.893 117.828 20.2252 117.828 21.4578H112.059ZM120.659 30.608C119.768 31.0473 118.789 31.2743 117.798 31.2709C113.29 31.2709 111.964 26.0946 111.964 22.9726H120.943C120.943 19.9266 120.029 16.5128 115.18 16.5128C110.33 16.5128 108.803 19.6909 108.803 24.0714C108.803 30.4388 112.127 33.0438 116.288 33.0438C118.172 33.0438 119.337 32.7115 120.658 32.1427V30.608H120.659ZM123.207 16.8702H126.365V20.8873H126.431C127.435 18.7639 128.539 16.7416 131.269 16.512V19.9861C128.225 20.0906 126.367 21.1825 126.367 25.4447V32.6908H123.208V16.8702H123.207H123.207ZM140.476 27.114C140.476 29.8217 138.474 30.9524 137.372 30.9524C136.329 30.9524 135.54 30.015 135.54 28.5865C135.54 25.6527 139.145 25.3445 140.477 25.2453V27.114H140.476ZM140.476 32.683H143.635V22.4746C143.635 19.3802 143.223 16.5111 138.348 16.5111C133.474 16.5111 132.741 18.9849 132.587 21.3464H135.917C136.044 19.4872 136.393 17.8939 138.348 17.8939C140.477 17.8939 140.477 20.7483 140.477 22.4746V23.8668C138.474 23.9609 132.08 24.194 132.08 29.0828C132.08 31.2847 133.809 33.0481 136.174 33.0481C138.539 33.0481 139.903 31.4194 140.404 30.4854H140.477V32.683H140.476ZM147.281 16.8728H150.443V20.6335H150.504C150.847 19.4372 152.177 16.5128 155.05 16.5128C157.69 16.5128 158.661 18.776 158.753 20.4358H158.813C159.354 19.2041 160.392 16.5128 163.364 16.5128C166.533 16.5128 167.126 19.2784 167.126 21.9662V32.6934H163.966V22.4979C163.966 20.6741 163.715 19.0073 162.131 19.0073C159.317 19.0073 158.782 24.1862 158.782 26.1171V32.6925H155.624V22.7939C155.624 20.8009 155.464 19.0065 153.724 19.0065C150.786 19.0065 150.443 24.4581 150.443 26.1524V32.6925H147.28V16.8728H147.279H147.281ZM170.686 16.8702H173.853V32.6908H170.686V16.8702ZM170.564 8.65735H173.973V11.983H170.564V8.65735ZM187.847 32.2385C186.561 32.7408 185.202 33.0438 183.852 33.0438C179.111 33.0438 176.347 30.0029 176.347 24.1327C176.347 19.4199 178.387 16.512 182.692 16.512C186.71 16.512 188.063 18.7536 188.063 22.0154H184.736C184.736 20.1199 184.543 17.8947 182.565 17.8947C180.736 17.8947 179.803 20.1484 179.803 23.0028C179.803 26.8525 181.342 31.2692 185.173 31.2692C186.083 31.2692 186.962 31.0344 187.847 30.671V32.2385H187.847Z" fill="#004759"/>
</svg>
