<svg width="190" height="43" viewBox="0 0 190 43" fill="none" xmlns="http://www.w3.org/2000/svg">
<path d="M61.2053 29.8563L47.4877 8.78008H41.8487V9.5791C44.7151 9.5791 44.7151 12.2847 44.7151 13.4153V37.5634C44.7151 38.694 44.7151 41.3996 41.8487 41.3996V42.1986H48.5644V41.3996C45.698 41.3996 45.698 38.694 45.698 37.5634V16.0565L57.5577 33.7547H60.0653L71.599 16.0335V37.5634C71.599 38.694 71.599 41.3996 68.7326 41.3996V42.1986H79.7995V41.3996C76.933 41.3996 76.933 38.694 76.933 37.5634V13.4153C76.933 12.2847 76.933 9.5791 79.7995 9.5791V8.78008H74.9181L61.2006 29.8563H61.2053Z" fill="#004759"/>
<path d="M102.834 7.98112C92.5739 7.98112 84.0169 14.5967 84.0169 25.4906C84.0169 36.3845 92.5762 43 102.834 43C113.092 43 121.651 36.3845 121.651 25.4906C121.651 14.5967 113.092 7.98112 102.834 7.98112ZM102.834 42.201C94.4223 42.201 89.6019 35.2423 89.6019 25.4906C89.6019 15.7388 94.4223 8.78014 102.834 8.78014C111.245 8.78014 116.066 15.7388 116.066 25.4906C116.066 35.2423 111.245 42.201 102.834 42.201Z" fill="#004759"/>
<path d="M18.817 7.98112C8.55702 7.98112 0 14.5967 0 25.4906C0 36.3845 8.55937 43 18.817 43C29.0747 43 37.6341 36.3845 37.6341 25.4906C37.6341 14.5967 29.0747 7.98112 18.817 7.98112ZM18.817 42.201C10.4054 42.201 5.58506 35.2423 5.58506 25.4906C5.58506 15.7388 10.4054 8.78014 18.817 8.78014C27.2286 8.78014 32.049 15.7388 32.049 25.4906C32.049 35.2423 27.2286 42.201 18.817 42.201Z" fill="#004759"/>
<path d="M11.5454 5.26158C13.558 5.26158 14.9935 4.30367 14.9935 2.62964C14.9935 0.955601 13.558 0 11.5454 0C9.5328 0 8.09726 0.957904 8.09726 2.62964C8.09726 4.30137 9.5328 5.26158 11.5454 5.26158Z" fill="#004759"/>
<path d="M26.0888 5.26158C28.1013 5.26158 29.5369 4.30367 29.5369 2.62964C29.5369 0.955601 28.1013 0 26.0888 0C24.0762 0 22.6406 0.957904 22.6406 2.62964C22.6406 4.30137 24.0762 5.26158 26.0888 5.26158Z" fill="#004759"/>
<path d="M186.195 38.0791L174.519 8.78008H167.071V9.5791C169.1 9.5791 170.111 12.1074 170.111 12.112L170.822 13.8966L160.339 38.0768C160.029 38.7907 158.896 41.3996 156.124 41.3996C153.811 41.3996 152.169 39.7325 151.456 39.0048C149.868 37.3884 147.916 35.3919 147.076 34.5077C146.058 33.4324 144.825 31.809 141.841 30.8442H145.538V30.8166C150.743 30.4758 156.185 26.5935 156.185 19.8121C156.185 13.0308 150.208 8.78008 144.789 8.78008H125.867V9.5791C128.733 9.5791 128.733 12.2847 128.733 13.4153V37.5634C128.733 38.694 128.733 41.3996 125.867 41.3996V42.1986H136.934V41.3996C134.067 41.3996 134.067 38.694 134.067 37.5634V30.9087C137.656 31.3346 139.791 33.8376 141.186 35.309C142.713 36.9209 147.921 42.2009 147.921 42.2009H162.933V41.4019C159.999 41.4019 160.977 39.1453 161.439 38.0815L164.575 30.8465H177.577L180.46 38.0791C180.95 39.3065 181.783 41.4019 178.309 41.4019V42.2009H190V41.4019C187.518 41.4019 186.592 39.0785 186.193 38.0815L186.195 38.0791ZM140.687 30.0452H134.07V9.5791H140.687C146.3 9.5791 150.597 12.8719 150.597 19.8121C150.597 26.7523 146.3 30.0452 140.687 30.0452ZM164.948 29.983L171.347 15.2206L177.23 29.983H164.946H164.948Z" fill="#004759"/>
</svg>
