<svg width="39" height="29" viewBox="0 0 39 29" fill="none" xmlns="http://www.w3.org/2000/svg">
<path d="M3.65625 29C2.67448 29 1.81966 28.6392 1.0918 27.9175C0.363932 27.1959 0 26.3484 0 25.375V3.625C0 2.65162 0.363932 1.80411 1.0918 1.08247C1.81966 0.360822 2.67448 0 3.65625 0H35.3438C36.3594 0 37.2227 0.360822 37.9336 1.08247C38.6445 1.80411 39 2.65162 39 3.625V25.375C39 26.3484 38.6445 27.1959 37.9336 27.9175C37.2227 28.6392 36.3594 29 35.3438 29H3.65625ZM19.5 16.9167L35.3438 7.90451V3.625L19.5 12.6372L3.65625 3.625V7.90451L19.5 16.9167Z" fill="#E86C4A"/>
</svg>
