<svg width="39" height="37" viewBox="0 0 39 37" fill="none" xmlns="http://www.w3.org/2000/svg">
<path d="M39 18.6186C39 27.8866 31.9081 35.5773 22.625 37C22.6034 36.9485 22.5818 36.8763 22.5818 36.7938C22.5818 36.5876 22.5818 36.3814 22.5818 36.1753V25.1856C22.5818 25.0206 22.5926 24.8557 22.5818 24.6907C22.5494 24.268 22.7437 24.1031 23.1863 24.1134C24.2225 24.134 25.248 24.1134 26.2843 24.1134C27.083 24.1134 27.1046 24.1134 27.2557 23.3711C27.45 22.4124 27.5904 21.4433 27.7523 20.4742C27.817 20.1134 27.9142 19.7629 27.9682 19.4021C28.0653 18.7217 27.9142 18.6392 27.3313 18.6495C25.9928 18.6701 24.6543 18.6598 23.3266 18.6495C22.6034 18.6495 22.5926 18.6289 22.5818 17.9794C22.571 17.1546 22.5818 16.3299 22.5818 15.5052C22.5602 13.134 23.7908 12.433 25.8633 12.268C26.5109 12.2165 27.1586 12.268 27.8063 12.268C28.1085 12.268 28.292 12.1649 28.292 11.8351C28.292 10.6392 28.292 9.45361 28.292 8.25773C28.292 7.86598 28.1301 7.61856 27.7199 7.56701C25.6366 7.29897 23.5425 7.1134 21.4592 7.5567C19.106 8.05155 17.0011 10.299 16.6125 12.6186C16.3642 14.0928 16.3966 15.5567 16.3858 17.0309C16.3858 17.3608 16.3858 17.6907 16.3858 18.0206C16.3642 18.6392 16.3534 18.6495 15.7382 18.6598C14.8746 18.6701 14.0111 18.6598 13.1475 18.6598C12.8021 18.6598 12.4567 18.6495 12.1113 18.6598C11.496 18.6804 11.4744 18.6907 11.4636 19.299C11.4528 20.701 11.4528 22.0928 11.4636 23.4948C11.4636 24.0825 11.496 24.0928 12.1436 24.1031C13.3526 24.1134 14.5616 24.1237 15.7598 24.1031C16.2023 24.1031 16.375 24.2474 16.375 24.6701C16.3642 26.2784 16.375 27.8763 16.375 29.4845C16.375 31.701 16.375 33.9278 16.375 36.1546C16.375 36.4227 16.3427 36.701 16.3211 36.9794C15.2524 36.8144 14.2054 36.5567 13.2015 36.2371C5.52671 33.7526 0 26.8041 0 18.6186C0 14.1237 1.67312 9.98969 4.44727 6.7732C8.031 2.63918 13.439 0 19.4946 0C24.4276 0 28.9397 1.75258 32.3723 4.63918C32.4478 4.70103 32.5342 4.7732 32.6097 4.83505C36.5281 8.23711 39 13.1546 39 18.6186Z" fill="#E86C4A"/>
</svg>
