<svg width="39" height="37" viewBox="0 0 39 37" fill="none" xmlns="http://www.w3.org/2000/svg">
<path d="M19.4946 0C8.73263 0 0 8.2871 0 18.5C0 26.6334 5.52671 33.5377 13.2015 36.0166C15.1013 36.6312 17.1198 36.9693 19.2355 37C19.3219 37 19.419 37 19.5054 37C30.2782 37 39 28.7129 39 18.5C39 8.2871 30.2674 0 19.4946 0ZM31.0446 22.6692C30.9798 25.4657 29.5981 27.5451 26.9319 28.7949C26.1223 29.1739 25.248 29.389 24.3305 29.389C21.103 29.389 17.8755 29.4095 14.6371 29.389C11.0966 29.3685 7.92306 26.2647 8.04179 23.0072C8.09577 21.4911 8.04179 19.9853 8.04179 18.4693C8.04179 17.0454 8.09577 15.6113 8.04179 14.1772C7.90147 10.8685 10.7944 7.54956 15.0581 7.5598C18.0697 7.5598 21.0922 7.52907 24.1038 7.5598C27.4392 7.60078 29.9543 9.80316 30.6668 12.1797C30.8826 12.907 31.023 13.6855 31.0338 14.4538C31.0769 17.1888 31.0985 19.9341 31.0338 22.6692H31.0446Z" fill="#E86C4A"/>
<path d="M28.7777 14.0952C28.7454 11.4626 26.3706 9.70072 24.1901 9.72121C21.0922 9.74169 17.9942 9.70072 14.8962 9.72121C12.2732 9.74169 10.2978 11.4729 10.2007 14.0952C10.0927 16.9942 10.1359 19.8931 10.1899 22.7921C10.2438 25.3837 12.2408 27.1764 14.9718 27.1968C16.4722 27.1968 17.9834 27.1968 19.4946 27.1968C21.0058 27.1968 22.5926 27.1559 24.147 27.1968C26.8564 27.289 28.7885 24.9432 28.7885 22.7716C28.7885 19.8726 28.8101 16.9737 28.7885 14.0748L28.7777 14.0952ZM19.4406 23.8779C15.6734 23.7652 13.7952 20.938 14.0003 18.5307C13.6333 15.6523 16.7852 13.1221 19.5378 13.1118C22.5926 13.1016 25.2372 15.683 25.2264 18.4385C25.2264 21.2555 23.0352 23.9803 19.4406 23.8677V23.8779ZM25.5826 14.1157C24.881 14.0748 24.147 13.3987 24.1578 12.8045C24.1578 12.1387 24.8486 11.4831 25.5502 11.4729C26.2735 11.4729 26.9859 12.1182 26.9535 12.7636C26.9319 13.4396 26.2087 14.1567 25.5826 14.1157Z" fill="#E86C4A"/>
<path d="M16.062 18.5205C15.9433 16.5844 17.8107 15.0991 19.6025 15.0991C21.416 15.0991 23.1647 16.6254 23.1323 18.4078C23.0999 20.3336 21.5239 21.9214 19.5054 21.9623C17.7351 21.9931 16.0728 20.3234 16.062 18.5205Z" fill="#E86C4A"/>
</svg>
